<mxfile host="Electron" agent="Mozilla/5.0 (Windows NT 10.0; Win64; x64) AppleWebKit/537.36 (KHTML, like Gecko) draw.io/24.7.17 Chrome/128.0.6613.36 Electron/32.0.1 Safari/537.36" version="24.7.17">
  <diagram name="Page-1" id="JSUwnZByOwS6eFCGkTWw">
    <mxGraphModel dx="993" dy="1749" grid="1" gridSize="10" guides="1" tooltips="1" connect="1" arrows="1" fold="1" page="1" pageScale="1" pageWidth="850" pageHeight="1100" math="0" shadow="0">
      <root>
        <mxCell id="0" />
        <mxCell id="1" parent="0" />
        <mxCell id="1OHOB4qyJFOTliLPU1qF-1" value="" style="rounded=0;whiteSpace=wrap;html=1;labelBackgroundColor=none;fillColor=#FAE5C7;strokeColor=#0F8B8D;fontColor=#143642;" parent="1" vertex="1">
          <mxGeometry x="175" y="-638" width="550" height="798" as="geometry" />
        </mxCell>
        <mxCell id="1OHOB4qyJFOTliLPU1qF-2" value="Customer&amp;nbsp;" style="shape=umlActor;verticalLabelPosition=bottom;verticalAlign=top;html=1;outlineConnect=0;labelBackgroundColor=none;fillColor=#FAE5C7;strokeColor=#0F8B8D;fontColor=#143642;" parent="1" vertex="1">
          <mxGeometry x="60" y="-560" width="40" height="80" as="geometry" />
        </mxCell>
        <mxCell id="1OHOB4qyJFOTliLPU1qF-6" style="edgeStyle=orthogonalEdgeStyle;rounded=0;orthogonalLoop=1;jettySize=auto;html=1;exitX=0.5;exitY=0;exitDx=0;exitDy=0;exitPerimeter=0;labelBackgroundColor=none;strokeColor=#A8201A;fontColor=default;" parent="1" source="1OHOB4qyJFOTliLPU1qF-3" target="1OHOB4qyJFOTliLPU1qF-2" edge="1">
          <mxGeometry relative="1" as="geometry" />
        </mxCell>
        <mxCell id="1OHOB4qyJFOTliLPU1qF-3" value="new custmer" style="shape=umlActor;verticalLabelPosition=bottom;verticalAlign=top;html=1;outlineConnect=0;labelBackgroundColor=none;fillColor=#FAE5C7;strokeColor=#0F8B8D;fontColor=#143642;" parent="1" vertex="1">
          <mxGeometry x="20" y="-420" width="30" height="60" as="geometry" />
        </mxCell>
        <mxCell id="1OHOB4qyJFOTliLPU1qF-8" value="" style="edgeStyle=orthogonalEdgeStyle;rounded=0;orthogonalLoop=1;jettySize=auto;html=1;labelBackgroundColor=none;strokeColor=#A8201A;fontColor=default;exitX=0.5;exitY=0;exitDx=0;exitDy=0;exitPerimeter=0;" parent="1" source="1OHOB4qyJFOTliLPU1qF-4" target="1OHOB4qyJFOTliLPU1qF-2" edge="1">
          <mxGeometry relative="1" as="geometry">
            <mxPoint x="125" y="-430" as="sourcePoint" />
            <Array as="points">
              <mxPoint x="125" y="-420" />
              <mxPoint x="125" y="-450" />
              <mxPoint x="80" y="-450" />
            </Array>
          </mxGeometry>
        </mxCell>
        <mxCell id="1OHOB4qyJFOTliLPU1qF-4" value="returned Customer" style="shape=umlActor;verticalLabelPosition=bottom;verticalAlign=top;html=1;outlineConnect=0;labelBackgroundColor=none;fillColor=#FAE5C7;strokeColor=#0F8B8D;fontColor=#143642;" parent="1" vertex="1">
          <mxGeometry x="105" y="-420" width="30" height="60" as="geometry" />
        </mxCell>
        <mxCell id="1OHOB4qyJFOTliLPU1qF-12" value="Manager&amp;nbsp;" style="shape=umlActor;verticalLabelPosition=bottom;verticalAlign=top;html=1;outlineConnect=0;labelBackgroundColor=none;fillColor=#FAE5C7;strokeColor=#0F8B8D;fontColor=#143642;" parent="1" vertex="1">
          <mxGeometry x="60" y="-100" width="45" height="90" as="geometry" />
        </mxCell>
        <mxCell id="1OHOB4qyJFOTliLPU1qF-14" value="Staff" style="shape=umlActor;verticalLabelPosition=bottom;verticalAlign=top;html=1;outlineConnect=0;labelBackgroundColor=none;fillColor=#FAE5C7;strokeColor=#0F8B8D;fontColor=#143642;" parent="1" vertex="1">
          <mxGeometry x="767.5" y="-610" width="55" height="110" as="geometry" />
        </mxCell>
        <mxCell id="1OHOB4qyJFOTliLPU1qF-15" value="inventory system" style="shape=umlActor;verticalLabelPosition=bottom;verticalAlign=top;html=1;outlineConnect=0;labelBackgroundColor=none;fillColor=#FAE5C7;strokeColor=#0F8B8D;fontColor=#143642;" parent="1" vertex="1">
          <mxGeometry x="765" y="-170" width="47.5" height="110" as="geometry" />
        </mxCell>
        <mxCell id="1OHOB4qyJFOTliLPU1qF-16" value="accountant&amp;nbsp;" style="shape=umlActor;verticalLabelPosition=bottom;verticalAlign=top;html=1;outlineConnect=0;labelBackgroundColor=none;fillColor=#FAE5C7;strokeColor=#0F8B8D;fontColor=#143642;" parent="1" vertex="1">
          <mxGeometry x="767.5" y="-335" width="50" height="110" as="geometry" />
        </mxCell>
        <mxCell id="1OHOB4qyJFOTliLPU1qF-17" value="&lt;span style=&quot;font-size: 19px;&quot;&gt;&lt;u&gt;Log in&amp;nbsp; &amp;nbsp; &amp;nbsp; &amp;nbsp; &amp;nbsp; &amp;nbsp;&amp;nbsp;&lt;/u&gt;&lt;/span&gt;&lt;br&gt;&lt;div&gt;&lt;br&gt;&lt;/div&gt;" style="ellipse;whiteSpace=wrap;html=1;labelBackgroundColor=none;fillColor=#FAE5C7;strokeColor=#0F8B8D;fontColor=#143642;" parent="1" vertex="1">
          <mxGeometry x="250" y="-545" width="150" height="110" as="geometry" />
        </mxCell>
        <mxCell id="1OHOB4qyJFOTliLPU1qF-18" value="Restaurant&amp;nbsp; Management System&amp;nbsp;" style="text;html=1;align=center;verticalAlign=middle;resizable=0;points=[];autosize=1;strokeColor=none;fillColor=none;fontSize=17;labelBackgroundColor=none;fontColor=#143642;" parent="1" vertex="1">
          <mxGeometry x="310" y="-680" width="280" height="30" as="geometry" />
        </mxCell>
        <mxCell id="1OHOB4qyJFOTliLPU1qF-19" value="&lt;font style=&quot;font-size: 18px;&quot;&gt;Order Food&lt;/font&gt;" style="ellipse;whiteSpace=wrap;html=1;labelBackgroundColor=none;fillColor=#FAE5C7;strokeColor=#0F8B8D;fontColor=#143642;" parent="1" vertex="1">
          <mxGeometry x="195" y="-425" width="135" height="90" as="geometry" />
        </mxCell>
        <mxCell id="1OHOB4qyJFOTliLPU1qF-20" value="&lt;font style=&quot;font-size: 18px;&quot;&gt;&lt;u&gt;Pay Bill&amp;nbsp; &amp;nbsp; &amp;nbsp; &amp;nbsp; &amp;nbsp; &amp;nbsp;&lt;/u&gt;&lt;/font&gt;&lt;div&gt;&lt;font style=&quot;font-size: 18px;&quot;&gt;&lt;u&gt;&lt;br&gt;&lt;/u&gt;&lt;/font&gt;&lt;/div&gt;" style="ellipse;whiteSpace=wrap;html=1;labelBackgroundColor=none;fillColor=#FAE5C7;strokeColor=#0F8B8D;fontColor=#143642;" parent="1" vertex="1">
          <mxGeometry x="180" y="-235" width="165" height="130" as="geometry" />
        </mxCell>
        <mxCell id="1OHOB4qyJFOTliLPU1qF-21" value="&lt;font style=&quot;font-size: 16px;&quot;&gt;Recieve&amp;nbsp; Reports&lt;/font&gt;&amp;nbsp;" style="ellipse;whiteSpace=wrap;html=1;labelBackgroundColor=none;fillColor=#FAE5C7;strokeColor=#0F8B8D;fontColor=#143642;" parent="1" vertex="1">
          <mxGeometry x="205" y="30" width="140" height="80" as="geometry" />
        </mxCell>
        <mxCell id="1OHOB4qyJFOTliLPU1qF-22" value="&lt;font style=&quot;font-size: 15px;&quot;&gt;Select menu items&lt;/font&gt;&amp;nbsp;" style="ellipse;whiteSpace=wrap;html=1;labelBackgroundColor=none;fillColor=#FAE5C7;strokeColor=#0F8B8D;fontColor=#143642;" parent="1" vertex="1">
          <mxGeometry x="430" y="-370" width="140" height="80" as="geometry" />
        </mxCell>
        <mxCell id="1OHOB4qyJFOTliLPU1qF-23" value="&lt;font style=&quot;font-size: 16px;&quot;&gt;Customize order&lt;/font&gt;" style="ellipse;whiteSpace=wrap;html=1;labelBackgroundColor=none;fillColor=#FAE5C7;strokeColor=#0F8B8D;fontColor=#143642;" parent="1" vertex="1">
          <mxGeometry x="335" y="-290" width="120" height="80" as="geometry" />
        </mxCell>
        <mxCell id="1OHOB4qyJFOTliLPU1qF-24" value="&lt;font style=&quot;font-size: 14px;&quot;&gt;Fail Payment &lt;/font&gt;&amp;nbsp;" style="ellipse;whiteSpace=wrap;html=1;labelBackgroundColor=none;fillColor=#FAE5C7;strokeColor=#0F8B8D;fontColor=#143642;" parent="1" vertex="1">
          <mxGeometry x="365" y="-60" width="120" height="80" as="geometry" />
        </mxCell>
        <mxCell id="1OHOB4qyJFOTliLPU1qF-25" value="&lt;font style=&quot;font-size: 16px;&quot;&gt;Manage Inventory&amp;nbsp;&lt;/font&gt;" style="ellipse;whiteSpace=wrap;html=1;labelBackgroundColor=none;fillColor=#FAE5C7;strokeColor=#0F8B8D;fontColor=#143642;" parent="1" vertex="1">
          <mxGeometry x="550" y="10" width="160" height="80" as="geometry" />
        </mxCell>
        <mxCell id="1OHOB4qyJFOTliLPU1qF-26" value="&lt;font style=&quot;font-size: 20px;&quot;&gt;Register&lt;/font&gt;&amp;nbsp;" style="ellipse;whiteSpace=wrap;html=1;labelBackgroundColor=none;fillColor=#FAE5C7;strokeColor=#0F8B8D;fontColor=#143642;" parent="1" vertex="1">
          <mxGeometry x="530" y="-530" width="120" height="80" as="geometry" />
        </mxCell>
        <mxCell id="1OHOB4qyJFOTliLPU1qF-27" value="&lt;font style=&quot;font-size: 17px;&quot;&gt;Prepare Food&lt;/font&gt;" style="ellipse;whiteSpace=wrap;html=1;labelBackgroundColor=none;fillColor=#FAE5C7;strokeColor=#0F8B8D;fontColor=#143642;" parent="1" vertex="1">
          <mxGeometry x="540" y="-440" width="120" height="80" as="geometry" />
        </mxCell>
        <mxCell id="1OHOB4qyJFOTliLPU1qF-28" value="&lt;font style=&quot;font-size: 18px;&quot;&gt;Serve Food&lt;/font&gt;" style="ellipse;whiteSpace=wrap;html=1;labelBackgroundColor=none;fillColor=#FAE5C7;strokeColor=#0F8B8D;fontColor=#143642;" parent="1" vertex="1">
          <mxGeometry x="580" y="-340" width="120" height="80" as="geometry" />
        </mxCell>
        <mxCell id="1OHOB4qyJFOTliLPU1qF-29" value="&lt;font style=&quot;font-size: 17px;&quot;&gt;Update Stock&amp;nbsp;&lt;/font&gt;" style="ellipse;whiteSpace=wrap;html=1;labelBackgroundColor=none;fillColor=#FAE5C7;strokeColor=#0F8B8D;fontColor=#143642;" parent="1" vertex="1">
          <mxGeometry x="360" y="70" width="120" height="80" as="geometry" />
        </mxCell>
        <mxCell id="1OHOB4qyJFOTliLPU1qF-30" value="Extension point :&lt;div&gt;Registration&amp;nbsp;&lt;/div&gt;" style="text;html=1;align=center;verticalAlign=middle;resizable=0;points=[];autosize=1;strokeColor=none;fillColor=none;labelBackgroundColor=none;fontColor=#143642;" parent="1" vertex="1">
          <mxGeometry x="270" y="-490" width="110" height="40" as="geometry" />
        </mxCell>
        <mxCell id="1OHOB4qyJFOTliLPU1qF-35" value="" style="endArrow=none;html=1;rounded=0;entryX=0;entryY=0.5;entryDx=0;entryDy=0;labelBackgroundColor=none;strokeColor=#A8201A;fontColor=default;exitX=0.5;exitY=0.5;exitDx=0;exitDy=0;exitPerimeter=0;" parent="1" source="1OHOB4qyJFOTliLPU1qF-2" target="1OHOB4qyJFOTliLPU1qF-17" edge="1">
          <mxGeometry width="50" height="50" relative="1" as="geometry">
            <mxPoint x="90" y="-440" as="sourcePoint" />
            <mxPoint x="140" y="-490" as="targetPoint" />
          </mxGeometry>
        </mxCell>
        <mxCell id="1OHOB4qyJFOTliLPU1qF-36" value="&lt;font style=&quot;font-size: 15px;&quot;&gt;&amp;lt;&amp;lt;extend&amp;gt;&amp;gt;&lt;/font&gt;" style="endArrow=open;endSize=12;dashed=1;html=1;rounded=0;exitX=0;exitY=0.5;exitDx=0;exitDy=0;entryX=1;entryY=0.5;entryDx=0;entryDy=0;labelBackgroundColor=none;strokeColor=#A8201A;fontColor=default;" parent="1" source="1OHOB4qyJFOTliLPU1qF-26" target="1OHOB4qyJFOTliLPU1qF-17" edge="1">
          <mxGeometry width="160" relative="1" as="geometry">
            <mxPoint x="370" y="-200" as="sourcePoint" />
            <mxPoint x="530" y="-200" as="targetPoint" />
          </mxGeometry>
        </mxCell>
        <mxCell id="1OHOB4qyJFOTliLPU1qF-37" value="&lt;font style=&quot;font-size: 16px;&quot;&gt;&amp;lt;&amp;lt;include&amp;gt;&amp;gt;&lt;/font&gt;" style="endArrow=open;endSize=12;dashed=1;html=1;rounded=0;entryX=0;entryY=0.5;entryDx=0;entryDy=0;exitX=0.991;exitY=0.391;exitDx=0;exitDy=0;exitPerimeter=0;labelBackgroundColor=none;strokeColor=#A8201A;fontColor=default;" parent="1" source="1OHOB4qyJFOTliLPU1qF-19" target="1OHOB4qyJFOTliLPU1qF-22" edge="1">
          <mxGeometry width="160" relative="1" as="geometry">
            <mxPoint x="340" y="-320" as="sourcePoint" />
            <mxPoint x="500" y="-320" as="targetPoint" />
          </mxGeometry>
        </mxCell>
        <mxCell id="1OHOB4qyJFOTliLPU1qF-38" value="" style="endArrow=none;html=1;rounded=0;labelBackgroundColor=none;strokeColor=#A8201A;fontColor=default;" parent="1" target="1OHOB4qyJFOTliLPU1qF-19" edge="1">
          <mxGeometry width="50" height="50" relative="1" as="geometry">
            <mxPoint x="80" y="-520" as="sourcePoint" />
            <mxPoint x="140" y="-490" as="targetPoint" />
          </mxGeometry>
        </mxCell>
        <mxCell id="1OHOB4qyJFOTliLPU1qF-40" value="&lt;font style=&quot;font-size: 15px;&quot;&gt;&amp;lt;&amp;lt;extend&amp;gt;&amp;gt;&lt;/font&gt;" style="endArrow=open;endSize=12;dashed=1;html=1;rounded=0;entryX=1;entryY=1;entryDx=0;entryDy=0;labelBackgroundColor=none;strokeColor=#A8201A;fontColor=default;" parent="1" source="1OHOB4qyJFOTliLPU1qF-23" target="1OHOB4qyJFOTliLPU1qF-19" edge="1">
          <mxGeometry width="160" relative="1" as="geometry">
            <mxPoint x="310" y="-220" as="sourcePoint" />
            <mxPoint x="470" y="-220" as="targetPoint" />
          </mxGeometry>
        </mxCell>
        <mxCell id="1OHOB4qyJFOTliLPU1qF-41" value="&lt;div&gt;&lt;font style=&quot;font-size: 14px;&quot;&gt;Extension point :&lt;/font&gt;&lt;/div&gt;&lt;font style=&quot;font-size: 13px;&quot;&gt;Payment Failure&amp;nbsp;&lt;/font&gt;" style="text;html=1;align=center;verticalAlign=middle;resizable=0;points=[];autosize=1;strokeColor=none;fillColor=none;labelBackgroundColor=none;fontColor=#143642;" parent="1" vertex="1">
          <mxGeometry x="197.5" y="-180" width="130" height="50" as="geometry" />
        </mxCell>
        <mxCell id="1OHOB4qyJFOTliLPU1qF-42" value="&lt;font style=&quot;font-size: 15px;&quot;&gt;&amp;lt;&amp;lt;extend&amp;gt;&amp;gt;&lt;/font&gt;" style="endArrow=open;endSize=12;dashed=1;html=1;rounded=0;entryX=0.927;entryY=0.746;entryDx=0;entryDy=0;exitX=0.239;exitY=0.125;exitDx=0;exitDy=0;exitPerimeter=0;entryPerimeter=0;labelBackgroundColor=none;strokeColor=#A8201A;fontColor=default;" parent="1" source="1OHOB4qyJFOTliLPU1qF-24" target="1OHOB4qyJFOTliLPU1qF-20" edge="1">
          <mxGeometry width="160" relative="1" as="geometry">
            <mxPoint x="360" y="-100" as="sourcePoint" />
            <mxPoint x="520" y="-100" as="targetPoint" />
          </mxGeometry>
        </mxCell>
        <mxCell id="1OHOB4qyJFOTliLPU1qF-44" value="" style="endArrow=none;html=1;rounded=0;entryX=0.5;entryY=0.5;entryDx=0;entryDy=0;entryPerimeter=0;exitX=0.325;exitY=0.064;exitDx=0;exitDy=0;exitPerimeter=0;labelBackgroundColor=none;strokeColor=#A8201A;fontColor=default;" parent="1" source="1OHOB4qyJFOTliLPU1qF-20" target="1OHOB4qyJFOTliLPU1qF-2" edge="1">
          <mxGeometry width="50" height="50" relative="1" as="geometry">
            <mxPoint x="230" y="-160" as="sourcePoint" />
            <mxPoint x="280" y="-210" as="targetPoint" />
          </mxGeometry>
        </mxCell>
        <mxCell id="1OHOB4qyJFOTliLPU1qF-46" value="" style="endArrow=none;html=1;rounded=0;exitX=0.5;exitY=0.5;exitDx=0;exitDy=0;exitPerimeter=0;labelBackgroundColor=none;strokeColor=#A8201A;fontColor=default;" parent="1" source="1OHOB4qyJFOTliLPU1qF-12" target="1OHOB4qyJFOTliLPU1qF-21" edge="1">
          <mxGeometry width="50" height="50" relative="1" as="geometry">
            <mxPoint x="120" y="110" as="sourcePoint" />
            <mxPoint x="170" y="60" as="targetPoint" />
          </mxGeometry>
        </mxCell>
        <mxCell id="1OHOB4qyJFOTliLPU1qF-47" value="" style="endArrow=none;html=1;rounded=0;exitX=0.921;exitY=0.299;exitDx=0;exitDy=0;exitPerimeter=0;entryX=0.5;entryY=0.5;entryDx=0;entryDy=0;entryPerimeter=0;labelBackgroundColor=none;strokeColor=#A8201A;fontColor=default;" parent="1" source="1OHOB4qyJFOTliLPU1qF-27" target="1OHOB4qyJFOTliLPU1qF-14" edge="1">
          <mxGeometry width="50" height="50" relative="1" as="geometry">
            <mxPoint x="690" y="-320" as="sourcePoint" />
            <mxPoint x="770" y="-410" as="targetPoint" />
          </mxGeometry>
        </mxCell>
        <mxCell id="1OHOB4qyJFOTliLPU1qF-48" value="" style="endArrow=none;html=1;rounded=0;entryX=0.5;entryY=0.5;entryDx=0;entryDy=0;entryPerimeter=0;exitX=0.812;exitY=0.082;exitDx=0;exitDy=0;exitPerimeter=0;labelBackgroundColor=none;strokeColor=#A8201A;fontColor=default;" parent="1" source="1OHOB4qyJFOTliLPU1qF-28" target="1OHOB4qyJFOTliLPU1qF-14" edge="1">
          <mxGeometry width="50" height="50" relative="1" as="geometry">
            <mxPoint x="670" y="-220" as="sourcePoint" />
            <mxPoint x="720" y="-270" as="targetPoint" />
          </mxGeometry>
        </mxCell>
        <mxCell id="1OHOB4qyJFOTliLPU1qF-50" value="&lt;font style=&quot;font-size: 15px;&quot;&gt;&amp;lt;&amp;lt;extend&amp;gt;&amp;gt;&lt;/font&gt;" style="endArrow=open;endSize=12;dashed=1;html=1;rounded=0;exitX=0.256;exitY=0.988;exitDx=0;exitDy=0;exitPerimeter=0;labelBackgroundColor=none;strokeColor=#A8201A;fontColor=default;" parent="1" source="1OHOB4qyJFOTliLPU1qF-25" target="1OHOB4qyJFOTliLPU1qF-29" edge="1">
          <mxGeometry width="160" relative="1" as="geometry">
            <mxPoint x="610" y="40" as="sourcePoint" />
            <mxPoint x="770" y="40" as="targetPoint" />
          </mxGeometry>
        </mxCell>
        <mxCell id="1OHOB4qyJFOTliLPU1qF-51" value="" style="endArrow=none;html=1;rounded=0;entryX=1;entryY=0.5;entryDx=0;entryDy=0;exitX=0.5;exitY=0.5;exitDx=0;exitDy=0;exitPerimeter=0;labelBackgroundColor=none;strokeColor=#A8201A;fontColor=default;" parent="1" source="1OHOB4qyJFOTliLPU1qF-15" target="1OHOB4qyJFOTliLPU1qF-25" edge="1">
          <mxGeometry width="50" height="50" relative="1" as="geometry">
            <mxPoint x="580" y="60" as="sourcePoint" />
            <mxPoint x="630" y="10" as="targetPoint" />
          </mxGeometry>
        </mxCell>
        <mxCell id="ZEF8uZJhkb7h-5s7Z_KT-4" value="&lt;font style=&quot;font-size: 18px;&quot;&gt;deal with staff&lt;/font&gt;" style="ellipse;whiteSpace=wrap;html=1;labelBackgroundColor=none;fillColor=#FAE5C7;strokeColor=#0F8B8D;fontColor=#143642;" parent="1" vertex="1">
          <mxGeometry x="205" y="-80" width="140" height="90" as="geometry" />
        </mxCell>
        <mxCell id="ZEF8uZJhkb7h-5s7Z_KT-5" value="" style="endArrow=none;html=1;rounded=0;entryX=0.136;entryY=0.222;entryDx=0;entryDy=0;entryPerimeter=0;exitX=0.5;exitY=0.5;exitDx=0;exitDy=0;exitPerimeter=0;labelBackgroundColor=none;strokeColor=#A8201A;fontColor=default;" parent="1" source="1OHOB4qyJFOTliLPU1qF-12" target="ZEF8uZJhkb7h-5s7Z_KT-4" edge="1">
          <mxGeometry width="50" height="50" relative="1" as="geometry">
            <mxPoint x="83" y="-50" as="sourcePoint" />
            <mxPoint x="130" y="-100" as="targetPoint" />
          </mxGeometry>
        </mxCell>
        <mxCell id="ZEF8uZJhkb7h-5s7Z_KT-8" value="&lt;span style=&quot;font-size: 23px;&quot;&gt;credit&lt;/span&gt;" style="ellipse;whiteSpace=wrap;html=1;labelBackgroundColor=none;fillColor=#FAE5C7;strokeColor=#0F8B8D;fontColor=#143642;" parent="1" vertex="1">
          <mxGeometry x="550" y="-180" width="120" height="80" as="geometry" />
        </mxCell>
        <mxCell id="ZEF8uZJhkb7h-5s7Z_KT-9" value="&lt;font style=&quot;font-size: 22px;&quot;&gt;cash&lt;/font&gt;" style="ellipse;whiteSpace=wrap;html=1;labelBackgroundColor=none;fillColor=#FAE5C7;strokeColor=#0F8B8D;fontColor=#143642;" parent="1" vertex="1">
          <mxGeometry x="540" y="-75" width="120" height="80" as="geometry" />
        </mxCell>
        <mxCell id="ZEF8uZJhkb7h-5s7Z_KT-12" value="&lt;font style=&quot;font-size: 19px;&quot;&gt;feedback&lt;/font&gt;&amp;nbsp;" style="ellipse;whiteSpace=wrap;html=1;labelBackgroundColor=none;fillColor=#FAE5C7;strokeColor=#0F8B8D;fontColor=#143642;" parent="1" vertex="1">
          <mxGeometry x="400" y="-450" width="120" height="80" as="geometry" />
        </mxCell>
        <mxCell id="ZEF8uZJhkb7h-5s7Z_KT-13" value="" style="endArrow=none;html=1;rounded=0;entryX=0;entryY=0.5;entryDx=0;entryDy=0;exitX=0.5;exitY=0.5;exitDx=0;exitDy=0;exitPerimeter=0;labelBackgroundColor=none;strokeColor=#A8201A;fontColor=default;" parent="1" source="1OHOB4qyJFOTliLPU1qF-2" target="ZEF8uZJhkb7h-5s7Z_KT-12" edge="1">
          <mxGeometry width="50" height="50" relative="1" as="geometry">
            <mxPoint x="-80" y="-350" as="sourcePoint" />
            <mxPoint x="-30" y="-400" as="targetPoint" />
          </mxGeometry>
        </mxCell>
        <mxCell id="WChyZMNCvf0wPeEYc4WX-5" value="" style="endArrow=none;html=1;rounded=0;exitX=0;exitY=0;exitDx=0;exitDy=0;labelBackgroundColor=none;strokeColor=#A8201A;fontColor=default;" parent="1" source="ZEF8uZJhkb7h-5s7Z_KT-9" edge="1">
          <mxGeometry width="50" height="50" relative="1" as="geometry">
            <mxPoint x="470" y="-80" as="sourcePoint" />
            <mxPoint x="450" y="-130" as="targetPoint" />
            <Array as="points">
              <mxPoint x="420" y="-70" />
            </Array>
          </mxGeometry>
        </mxCell>
        <mxCell id="WChyZMNCvf0wPeEYc4WX-6" value="" style="endArrow=none;html=1;rounded=0;entryX=0.082;entryY=0.333;entryDx=0;entryDy=0;entryPerimeter=0;labelBackgroundColor=none;strokeColor=#A8201A;fontColor=default;" parent="1" target="ZEF8uZJhkb7h-5s7Z_KT-8" edge="1">
          <mxGeometry width="50" height="50" relative="1" as="geometry">
            <mxPoint x="450" y="-130" as="sourcePoint" />
            <mxPoint x="530" y="-150" as="targetPoint" />
            <Array as="points">
              <mxPoint x="480" y="-160" />
            </Array>
          </mxGeometry>
        </mxCell>
        <mxCell id="WChyZMNCvf0wPeEYc4WX-7" value="" style="endArrow=classic;html=1;rounded=0;entryX=1;entryY=0.5;entryDx=0;entryDy=0;labelBackgroundColor=none;strokeColor=#A8201A;fontColor=default;" parent="1" target="1OHOB4qyJFOTliLPU1qF-20" edge="1">
          <mxGeometry width="50" height="50" relative="1" as="geometry">
            <mxPoint x="450" y="-130" as="sourcePoint" />
            <mxPoint x="460" y="-150" as="targetPoint" />
            <Array as="points" />
          </mxGeometry>
        </mxCell>
        <mxCell id="WChyZMNCvf0wPeEYc4WX-9" value="" style="endArrow=none;html=1;rounded=0;strokeColor=#A8201A;fontColor=#143642;fillColor=#FAE5C7;exitX=0.5;exitY=0.5;exitDx=0;exitDy=0;exitPerimeter=0;entryX=0.047;entryY=0.688;entryDx=0;entryDy=0;entryPerimeter=0;" parent="1" source="1OHOB4qyJFOTliLPU1qF-2" target="WChyZMNCvf0wPeEYc4WX-8" edge="1">
          <mxGeometry width="50" height="50" relative="1" as="geometry">
            <mxPoint x="230" y="-520" as="sourcePoint" />
            <mxPoint x="280" y="-570" as="targetPoint" />
          </mxGeometry>
        </mxCell>
        <mxCell id="WChyZMNCvf0wPeEYc4WX-10" value="" style="endArrow=none;html=1;rounded=0;strokeColor=#A8201A;fontColor=#143642;fillColor=#FAE5C7;entryX=0.5;entryY=0.5;entryDx=0;entryDy=0;entryPerimeter=0;" parent="1" source="WChyZMNCvf0wPeEYc4WX-8" target="1OHOB4qyJFOTliLPU1qF-14" edge="1">
          <mxGeometry width="50" height="50" relative="1" as="geometry">
            <mxPoint x="360" y="-580" as="sourcePoint" />
            <mxPoint x="410" y="-630" as="targetPoint" />
          </mxGeometry>
        </mxCell>
        <mxCell id="WChyZMNCvf0wPeEYc4WX-11" value="" style="endArrow=none;html=1;rounded=0;strokeColor=#A8201A;fontColor=#143642;fillColor=#FAE5C7;entryX=0.5;entryY=0.5;entryDx=0;entryDy=0;entryPerimeter=0;exitX=1;exitY=0.5;exitDx=0;exitDy=0;" parent="1" source="WChyZMNCvf0wPeEYc4WX-8" target="WChyZMNCvf0wPeEYc4WX-8" edge="1">
          <mxGeometry width="50" height="50" relative="1" as="geometry">
            <mxPoint x="360" y="-580" as="sourcePoint" />
            <mxPoint x="792" y="-575" as="targetPoint" />
          </mxGeometry>
        </mxCell>
        <mxCell id="WChyZMNCvf0wPeEYc4WX-8" value="&lt;font style=&quot;font-size: 19px;&quot;&gt;Book Table&lt;/font&gt;" style="ellipse;whiteSpace=wrap;html=1;strokeColor=#0F8B8D;fontColor=#143642;fillColor=#FAE5C7;" parent="1" vertex="1">
          <mxGeometry x="370" y="-630" width="120" height="80" as="geometry" />
        </mxCell>
        <mxCell id="WChyZMNCvf0wPeEYc4WX-13" value="&lt;font style=&quot;font-size: 18px;&quot;&gt;Recive order&lt;/font&gt;" style="ellipse;whiteSpace=wrap;html=1;strokeColor=#0F8B8D;fontColor=#143642;fillColor=#FAE5C7;" parent="1" vertex="1">
          <mxGeometry x="215" y="-630" width="120" height="80" as="geometry" />
        </mxCell>
        <mxCell id="WChyZMNCvf0wPeEYc4WX-14" value="" style="endArrow=none;html=1;rounded=0;strokeColor=#A8201A;fontColor=#143642;fillColor=#FAE5C7;entryX=0;entryY=0.5;entryDx=0;entryDy=0;exitX=0.5;exitY=0.5;exitDx=0;exitDy=0;exitPerimeter=0;" parent="1" source="1OHOB4qyJFOTliLPU1qF-2" target="WChyZMNCvf0wPeEYc4WX-13" edge="1">
          <mxGeometry width="50" height="50" relative="1" as="geometry">
            <mxPoint x="120" y="-550" as="sourcePoint" />
            <mxPoint x="170" y="-600" as="targetPoint" />
          </mxGeometry>
        </mxCell>
        <mxCell id="Y_hwtGEWYiYIrz3gTwvI-1" value="&lt;font style=&quot;font-size: 16px;&quot;&gt;Make invoices&lt;/font&gt;" style="ellipse;whiteSpace=wrap;html=1;fillColor=#ffe6cc;strokeColor=#d79b00;" vertex="1" parent="1">
          <mxGeometry x="450" y="-250" width="120" height="80" as="geometry" />
        </mxCell>
        <mxCell id="Y_hwtGEWYiYIrz3gTwvI-2" value="" style="endArrow=none;html=1;rounded=0;exitX=1;exitY=0.5;exitDx=0;exitDy=0;entryX=0.5;entryY=0.5;entryDx=0;entryDy=0;entryPerimeter=0;" edge="1" parent="1" source="Y_hwtGEWYiYIrz3gTwvI-1" target="1OHOB4qyJFOTliLPU1qF-16">
          <mxGeometry width="50" height="50" relative="1" as="geometry">
            <mxPoint x="660" y="-200" as="sourcePoint" />
            <mxPoint x="710" y="-250" as="targetPoint" />
          </mxGeometry>
        </mxCell>
      </root>
    </mxGraphModel>
  </diagram>
</mxfile>
